STARTFONT 2.3
FONT -FontForge-Satisfy-Book-R-Normal--10-100-72-72-P-44-ISO10646-1
SIZE 10 72 72  4
FONTBOUNDINGBOX 13 15 -3 -5
COMMENT "Generated by fontforge, http://fontforge.sourceforge.net"
COMMENT "Copyright (c) 2011 by Font Diner, Inc. All rights reserved."
STARTPROPERTIES 40
FOUNDRY "FontForge"
FAMILY_NAME "Satisfy"
WEIGHT_NAME "Book"
SLANT "R"
SETWIDTH_NAME "Normal"
ADD_STYLE_NAME ""
PIXEL_SIZE 10
POINT_SIZE 100
RESOLUTION_X 72
RESOLUTION_Y 72
SPACING "P"
AVERAGE_WIDTH 44
CHARSET_REGISTRY "ISO10646"
CHARSET_ENCODING "1"
FONTNAME_REGISTRY ""
CHARSET_COLLECTIONS "ISO10646-1"
BITS_PER_PIXEL 4
FONT_NAME "Satisfy-Regular"
FACE_NAME "Satisfy Regular"
COPYRIGHT "Copyright (c) 2011 by Font Diner, Inc. All rights reserved."
FONT_VERSION "1.001"
FONT_ASCENT 8
FONT_DESCENT 2
UNDERLINE_POSITION -1
UNDERLINE_THICKNESS 1
X_HEIGHT 3
CAP_HEIGHT 7
RAW_ASCENT 799
RAW_DESCENT 200
NORM_SPACE 3
RELATIVE_WEIGHT 40
RELATIVE_SETWIDTH 50
SUPERSCRIPT_X 0
SUPERSCRIPT_Y 4
SUPERSCRIPT_SIZE 6
SUBSCRIPT_X 0
SUBSCRIPT_Y 1
SUBSCRIPT_SIZE 6
AVG_LOWERCASE_WIDTH 42
AVG_UPPERCASE_WIDTH 57
ENDPROPERTIES
CHARS 227
STARTCHAR space
ENCODING 32
SWIDTH 280 0
DWIDTH 3 0
BBX 1 1 0 0
BITMAP
00
ENDCHAR
STARTCHAR exclam
ENCODING 33
SWIDTH 249 0
DWIDTH 2 0
BBX 4 9 -1 -1
BITMAP
0013
0087
00B3
00D0
03A0
0660
0510
1A10
0200
ENDCHAR
STARTCHAR quotedbl
ENCODING 34
SWIDTH 249 0
DWIDTH 2 0
BBX 4 4 0 4
BITMAP
0321
2AB1
66B0
5350
ENDCHAR
STARTCHAR numbersign
ENCODING 35
SWIDTH 417 0
DWIDTH 4 0
BBX 6 6 -1 1
BITMAP
000220
0055A0
07DBB3
03B960
1A8C40
073700
ENDCHAR
STARTCHAR dollar
ENCODING 36
SWIDTH 292 0
DWIDTH 3 0
BBX 5 9 -1 -1
BITMAP
000200
005A00
056730
066510
01B000
128300
478200
093000
010000
ENDCHAR
STARTCHAR percent
ENCODING 37
SWIDTH 574 0
DWIDTH 6 0
BBX 6 9 0 -1
BITMAP
011003
39A084
81A380
778A00
028330
047A83
1A3663
A32AA0
100100
ENDCHAR
STARTCHAR ampersand
ENCODING 38
SWIDTH 460 0
DWIDTH 5 0
BBX 6 9 -1 -1
BITMAP
000250
001981
005A80
007A00
04E700
2C6900
772C51
4C7F50
022430
ENDCHAR
STARTCHAR quotesingle
ENCODING 39
SWIDTH 113 0
DWIDTH 1 0
BBX 2 4 0 4
BITMAP
03
2A
65
51
ENDCHAR
STARTCHAR parenleft
ENCODING 40
SWIDTH 234 0
DWIDTH 2 0
BBX 4 10 0 -1
BITMAP
0001
0091
0640
0B00
4700
8400
B100
B000
A000
7100
ENDCHAR
STARTCHAR parenright
ENCODING 41
SWIDTH 204 0
DWIDTH 2 0
BBX 3 10 -1 -1
BITMAP
0010
0090
00A0
00B0
00C0
0290
0650
0A10
3700
9000
ENDCHAR
STARTCHAR asterisk
ENCODING 42
SWIDTH 327 0
DWIDTH 3 0
BBX 4 4 0 4
BITMAP
0020
35B2
1AB7
29A2
ENDCHAR
STARTCHAR plus
ENCODING 43
SWIDTH 350 0
DWIDTH 4 0
BBX 4 4 0 2
BITMAP
0120
0750
AEA4
0B00
ENDCHAR
STARTCHAR comma
ENCODING 44
SWIDTH 200 0
DWIDTH 2 0
BBX 2 3 -1 -2
BITMAP
28
19
10
ENDCHAR
STARTCHAR hyphen
ENCODING 45
SWIDTH 353 0
DWIDTH 4 0
BBX 5 2 -1 2
BITMAP
067720
143310
ENDCHAR
STARTCHAR period
ENCODING 46
SWIDTH 213 0
DWIDTH 2 0
BBX 2 2 -1 -1
BITMAP
2A
12
ENDCHAR
STARTCHAR slash
ENCODING 47
SWIDTH 262 0
DWIDTH 3 0
BBX 5 9 -1 -1
BITMAP
000030
000660
001A00
007300
019000
092000
390000
B20000
100000
ENDCHAR
STARTCHAR zero
ENCODING 48
SWIDTH 489 0
DWIDTH 5 0
BBX 5 9 0 -1
BITMAP
002400
03A920
0C1460
490570
850750
A40B20
933A00
4AA200
020000
ENDCHAR
STARTCHAR one
ENCODING 49
SWIDTH 272 0
DWIDTH 3 0
BBX 3 9 0 -1
BITMAP
0110
0B70
0930
0B00
0B00
4700
8400
C200
1000
ENDCHAR
STARTCHAR two
ENCODING 50
SWIDTH 448 0
DWIDTH 4 0
BBX 6 9 -1 -1
BITMAP
000340
0093A4
02B0A3
0001C0
000A30
009500
0A4000
2DCD50
010010
ENDCHAR
STARTCHAR three
ENCODING 51
SWIDTH 462 0
DWIDTH 5 0
BBX 5 9 0 -1
BITMAP
004400
0B5940
3C0850
013B00
05D400
000C00
703900
D8B200
130000
ENDCHAR
STARTCHAR four
ENCODING 52
SWIDTH 452 0
DWIDTH 5 0
BBX 5 9 0 -1
BITMAP
000210
006E20
049A00
3B1900
D8AB00
439700
00C200
00F100
002000
ENDCHAR
STARTCHAR five
ENCODING 53
SWIDTH 444 0
DWIDTH 4 0
BBX 5 9 0 -1
BITMAP
002310
089B80
090000
387300
6C5B00
000900
905400
DC8000
130000
ENDCHAR
STARTCHAR six
ENCODING 54
SWIDTH 477 0
DWIDTH 5 0
BBX 5 9 0 -1
BITMAP
001400
02A940
0A2510
2B8700
7E2A10
950B10
842B00
4AA200
021000
ENDCHAR
STARTCHAR seven
ENCODING 55
SWIDTH 406 0
DWIDTH 4 0
BBX 5 9 0 -1
BITMAP
024410
2C8A60
001A10
009400
03A000
0B3000
2C0000
680000
010000
ENDCHAR
STARTCHAR eight
ENCODING 56
SWIDTH 444 0
DWIDTH 4 0
BBX 6 9 -1 -1
BITMAP
000340
005654
00B183
009B60
01AD10
0A3850
1B0760
0B5A10
013000
ENDCHAR
STARTCHAR nine
ENCODING 57
SWIDTH 462 0
DWIDTH 5 0
BBX 5 9 0 -1
BITMAP
003300
077810
1B0640
570C40
574E20
1A7B00
408600
BB9000
120000
ENDCHAR
STARTCHAR colon
ENCODING 58
SWIDTH 226 0
DWIDTH 2 0
BBX 3 4 -1 -1
BITMAP
0750
0100
2A00
1200
ENDCHAR
STARTCHAR semicolon
ENCODING 59
SWIDTH 212 0
DWIDTH 2 0
BBX 3 5 -1 -2
BITMAP
0940
0100
2800
1900
1000
ENDCHAR
STARTCHAR less
ENCODING 60
SWIDTH 271 0
DWIDTH 3 0
BBX 3 5 0 1
BITMAP
0020
1A50
B400
A300
2900
ENDCHAR
STARTCHAR equal
ENCODING 61
SWIDTH 374 0
DWIDTH 4 0
BBX 4 3 0 2
BITMAP
2664
5873
8771
ENDCHAR
STARTCHAR greater
ENCODING 62
SWIDTH 250 0
DWIDTH 3 0
BBX 4 5 -1 1
BITMAP
0110
03A0
00A4
04B1
3900
ENDCHAR
STARTCHAR question
ENCODING 63
SWIDTH 413 0
DWIDTH 4 0
BBX 5 9 0 -1
BITMAP
015400
3B4870
350570
001B10
189200
580000
630000
920000
400000
ENDCHAR
STARTCHAR at
ENCODING 64
SWIDTH 648 0
DWIDTH 6 0
BBX 8 8 -1 -1
BITMAP
00036400
01962470
0947AC72
1A644954
37B08382
1A89B290
05828810
00010000
ENDCHAR
STARTCHAR A
ENCODING 65
SWIDTH 552 0
DWIDTH 6 0
BBX 6 11 -1 -3
BITMAP
000023
00058B
001A0A
00841A
00C048
04B496
5D97D7
1E10C1
6C00E0
9400E3
000030
ENDCHAR
STARTCHAR B
ENCODING 66
SWIDTH 607 0
DWIDTH 6 0
BBX 6 10 0 -2
BITMAP
005530
0BE398
06904B
085097
0B36A0
1DB880
5800C2
9501E2
D20A90
A89500
ENDCHAR
STARTCHAR C
ENCODING 67
SWIDTH 548 0
DWIDTH 5 0
BBX 6 10 0 -2
BITMAP
000440
01A585
0A6077
3D00D4
980010
D40000
E20000
E10020
A60720
1AA300
ENDCHAR
STARTCHAR D
ENCODING 68
SWIDTH 632 0
DWIDTH 6 0
BBX 6 10 0 -2
BITMAP
004400
0B87B2
04705A
08702E
0A402E
0D104B
2B0096
6703C0
B32C20
8A8100
ENDCHAR
STARTCHAR E
ENCODING 69
SWIDTH 523 0
DWIDTH 5 0
BBX 7 10 -1 -2
BITMAP
00014300
004B4940
01E20940
03D02900
01D30000
029A5000
0C200000
4C001500
2E218100
05BA2000
ENDCHAR
STARTCHAR F
ENCODING 70
SWIDTH 585 0
DWIDTH 6 0
BBX 6 10 0 -2
BITMAP
003451
2B646A
7C3048
0400A1
0468C2
074C51
003B00
009600
00E200
01B100
ENDCHAR
STARTCHAR G
ENCODING 71
SWIDTH 612 0
DWIDTH 6 0
BBX 6 10 0 -2
BITMAP
000350
008776
06A058
1E20D5
5B0020
A72675
C423C2
C302A0
850A20
199300
ENDCHAR
STARTCHAR H
ENCODING 72
SWIDTH 649 0
DWIDTH 7 0
BBX 7 10 0 -2
BITMAP
00200010
02C00960
06800D10
0A403B00
0D128700
5DD9DB00
5819C000
9507A000
C2067000
C0063000
ENDCHAR
STARTCHAR I
ENCODING 73
SWIDTH 537 0
DWIDTH 5 0
BBX 7 10 -1 -2
BITMAP
00002300
0004AB00
000C2C00
000D3A00
000B6700
0004B400
18A9D610
98058000
970A1000
19840000
ENDCHAR
STARTCHAR J
ENCODING 74
SWIDTH 500 0
DWIDTH 5 0
BBX 7 10 -1 -2
BITMAP
00024420
00078C60
00006800
0000A400
0000E100
0563D000
3C379000
930B3000
B03B0000
58810000
ENDCHAR
STARTCHAR K
ENCODING 75
SWIDTH 497 0
DWIDTH 5 0
BBX 7 11 -1 -3
BITMAP
00030210
00780A50
00B21D10
01C08700
04868000
09DA2000
0C24B000
0D04A000
3C095000
570B3000
00039500
ENDCHAR
STARTCHAR L
ENCODING 76
SWIDTH 492 0
DWIDTH 5 0
BBX 7 10 -1 -2
BITMAP
00001400
0000BC40
0004AB10
0109E500
059E3000
000C0000
00480000
00A20000
ADD20200
764BD400
ENDCHAR
STARTCHAR M
ENCODING 77
SWIDTH 733 0
DWIDTH 7 0
BBX 9 10 -1 -2
BITMAP
0001200210
000AA03F30
001BA0AC00
0059939B00
0097895900
12D58A7500
83B5E4A200
A583F0D000
BA4041F000
7A0000B400
ENDCHAR
STARTCHAR N
ENCODING 78
SWIDTH 541 0
DWIDTH 5 0
BBX 8 10 -1 -2
BITMAP
00110050
00B608A4
00E70C72
03A85D50
07584800
0A297500
0C0AA200
3B0AC000
5B0BB000
38055000
ENDCHAR
STARTCHAR O
ENCODING 79
SWIDTH 567 0
DWIDTH 6 0
BBX 6 10 0 -2
BITMAP
002620
02C7B0
0B30C1
3B00B2
8600B2
B300E0
D102B0
D00860
A22B00
3A9200
ENDCHAR
STARTCHAR P
ENCODING 80
SWIDTH 552 0
DWIDTH 6 0
BBX 7 10 -1 -2
BITMAP
00035300
02CA2B50
037605A0
00920770
00C01C10
02B5A200
06A30000
0A500000
0E100000
38000000
ENDCHAR
STARTCHAR Q
ENCODING 81
SWIDTH 583 0
DWIDTH 6 0
BBX 6 10 0 -2
BITMAP
001420
03B4B1
0C3076
5A0067
960085
B400C2
8603C0
082B40
6ACC00
5B6482
ENDCHAR
STARTCHAR R
ENCODING 82
SWIDTH 560 0
DWIDTH 6 0
BBX 7 11 -1 -3
BITMAP
00035300
02BB2A60
026704B0
00830690
00B01C20
06E9A300
05B76000
0872A000
0C31C000
2900D500
00003300
ENDCHAR
STARTCHAR S
ENCODING 83
SWIDTH 474 0
DWIDTH 5 0
BBX 6 10 -1 -2
BITMAP
000462
00983C
02B01D
03C035
00B800
001D40
000680
370470
6A0820
1BA500
ENDCHAR
STARTCHAR T
ENCODING 84
SWIDTH 423 0
DWIDTH 4 0
BBX 6 10 0 -2
BITMAP
023331
8ACA72
00C200
01D000
049000
075000
0B2000
0E0000
3C0000
570000
ENDCHAR
STARTCHAR U
ENCODING 85
SWIDTH 574 0
DWIDTH 6 0
BBX 6 10 0 -2
BITMAP
002003
07A03E
0C4079
1E00B4
5A00D0
8502B0
B20680
D00C60
D25D50
6B7450
ENDCHAR
STARTCHAR V
ENCODING 86
SWIDTH 503 0
DWIDTH 5 0
BBX 6 10 0 -2
BITMAP
021011
0E1097
3B00D1
670590
750A40
840D00
844900
659300
38A000
0A3000
ENDCHAR
STARTCHAR W
ENCODING 87
SWIDTH 817 0
DWIDTH 8 0
BBX 8 10 0 -2
BITMAP
00300005
0870811F
0D12E00E
3A05B01C
76067049
93095075
B10E30B1
B06C3290
94A56A20
3B21C500
ENDCHAR
STARTCHAR X
ENCODING 88
SWIDTH 579 0
DWIDTH 6 0
BBX 8 10 -1 -2
BITMAP
00510012
076A01D5
094C0A50
03AB6900
0008C100
000B5000
005D6000
01C48000
0A51C030
37007A30
ENDCHAR
STARTCHAR Y
ENCODING 89
SWIDTH 532 0
DWIDTH 5 0
BBX 6 10 0 -2
BITMAP
012013
0B5078
1E00B3
4A00D0
7604A0
A30B60
8A9A30
031B00
727600
8C7000
ENDCHAR
STARTCHAR Z
ENCODING 90
SWIDTH 455 0
DWIDTH 5 0
BBX 6 10 -1 -2
BITMAP
002442
02C98E
00005A
0002D1
000B40
009700
069000
2C0000
976640
898940
ENDCHAR
STARTCHAR bracketleft
ENCODING 91
SWIDTH 202 0
DWIDTH 2 0
BBX 4 11 -1 -2
BITMAP
0014
0077
00A0
0190
0550
0920
0A00
1900
4600
6A00
0100
ENDCHAR
STARTCHAR backslash
ENCODING 92
SWIDTH 273 0
DWIDTH 3 0
BBX 3 9 0 -1
BITMAP
2100
8400
6500
4700
1900
0B00
0B00
0930
0100
ENDCHAR
STARTCHAR bracketright
ENCODING 93
SWIDTH 216 0
DWIDTH 2 0
BBX 4 11 -1 -2
BITMAP
0041
0096
0073
0090
00A0
0280
0640
0A10
0A00
9700
2000
ENDCHAR
STARTCHAR asciicircum
ENCODING 94
SWIDTH 287 0
DWIDTH 3 0
BBX 5 5 -1 3
BITMAP
000200
009B00
038A00
0A1A10
130410
ENDCHAR
STARTCHAR underscore
ENCODING 95
SWIDTH 439 0
DWIDTH 4 0
BBX 5 2 -1 -1
BITMAP
ABBB90
100010
ENDCHAR
STARTCHAR grave
ENCODING 96
SWIDTH 567 0
DWIDTH 6 0
BBX 3 2 2 5
BITMAP
3800
0320
ENDCHAR
STARTCHAR a
ENCODING 97
SWIDTH 435 0
DWIDTH 4 0
BBX 7 6 -1 -1
BITMAP
00010000
019C1000
0A291110
1C0B0700
1E9A8100
01010000
ENDCHAR
STARTCHAR b
ENCODING 98
SWIDTH 415 0
DWIDTH 4 0
BBX 5 8 0 -1
BITMAP
086000
0E3000
5D0000
986120
B2A840
A0A000
994000
010000
ENDCHAR
STARTCHAR c
ENCODING 99
SWIDTH 363 0
DWIDTH 4 0
BBX 6 6 -1 -1
BITMAP
001000
03AA00
0B2502
1B0071
0B6820
013000
ENDCHAR
STARTCHAR d
ENCODING 100
SWIDTH 483 0
DWIDTH 5 0
BBX 7 8 -1 -1
BITMAP
00004A00
00008900
0000C600
0288E100
0A177020
190A1520
0C8B7400
01011000
ENDCHAR
STARTCHAR e
ENCODING 101
SWIDTH 372 0
DWIDTH 4 0
BBX 5 5 0 -1
BITMAP
29B000
A66020
E40610
B78200
130000
ENDCHAR
STARTCHAR f
ENCODING 102
SWIDTH 325 0
DWIDTH 3 0
BBX 6 12 -1 -5
BITMAP
008600
009400
00B100
01A000
06B651
0E1000
0C9000
377400
745600
A1A200
C78000
870000
ENDCHAR
STARTCHAR g
ENCODING 103
SWIDTH 459 0
DWIDTH 5 0
BBX 7 9 -1 -5
BITMAP
02A87000
0A187010
0B084710
0C9D8100
016C0000
07780000
1A650000
19B10000
08800000
ENDCHAR
STARTCHAR h
ENCODING 104
SWIDTH 465 0
DWIDTH 5 0
BBX 6 8 0 -1
BITMAP
093000
0C1000
1B0000
5AB600
876701
B0A261
B0C820
101000
ENDCHAR
STARTCHAR i
ENCODING 105
SWIDTH 274 0
DWIDTH 3 0
BBX 4 7 0 0
BITMAP
0310
0710
0000
4700
9402
A072
9930
ENDCHAR
STARTCHAR j
ENCODING 106
SWIDTH 267 0
DWIDTH 3 0
BBX 7 12 -3 -5
BITMAP
00003200
00005100
00000000
00037000
00085020
000B1710
000D8100
006A0000
06C60000
0A920000
19B00000
04200000
ENDCHAR
STARTCHAR k
ENCODING 107
SWIDTH 440 0
DWIDTH 4 0
BBX 6 8 -1 -1
BITMAP
00B300
00D000
01A000
058B50
087821
096A07
191C81
010300
ENDCHAR
STARTCHAR l
ENCODING 108
SWIDTH 218 0
DWIDTH 2 0
BBX 4 8 -1 -1
BITMAP
0093
00D1
02B0
0580
0940
0C00
1B00
0100
ENDCHAR
STARTCHAR m
ENCODING 109
SWIDTH 717 0
DWIDTH 7 0
BBX 8 5 0 -1
BITMAP
36978900
7B4D4C02
B3664916
D0A16B80
10100200
ENDCHAR
STARTCHAR n
ENCODING 110
SWIDTH 461 0
DWIDTH 5 0
BBX 7 5 -1 -1
BITMAP
048B4000
08866020
0B0A2710
1B0C8300
01021000
ENDCHAR
STARTCHAR o
ENCODING 111
SWIDTH 393 0
DWIDTH 4 0
BBX 5 5 0 -1
BITMAP
4A7010
C4A550
A8D200
B95000
120000
ENDCHAR
STARTCHAR p
ENCODING 112
SWIDTH 451 0
DWIDTH 5 0
BBX 7 9 -1 -5
BITMAP
058A5000
07937110
0A193700
0EED8100
38320000
75000000
B2000000
D0000000
20000000
ENDCHAR
STARTCHAR q
ENCODING 113
SWIDTH 462 0
DWIDTH 5 0
BBX 5 9 0 -5
BITMAP
187900
A27800
D08420
C5D350
13C700
03A000
096000
0B5000
032000
ENDCHAR
STARTCHAR r
ENCODING 114
SWIDTH 406 0
DWIDTH 4 0
BBX 6 6 -1 -1
BITMAP
017000
06E400
084D02
274735
719770
001300
ENDCHAR
STARTCHAR s
ENCODING 115
SWIDTH 351 0
DWIDTH 4 0
BBX 3 6 0 -1
BITMAP
0310
1F10
6A30
33A0
9770
1300
ENDCHAR
STARTCHAR t
ENCODING 116
SWIDTH 301 0
DWIDTH 3 0
BBX 6 8 -1 -1
BITMAP
007500
46DB71
14F110
04A000
074030
080340
088600
002000
ENDCHAR
STARTCHAR u
ENCODING 117
SWIDTH 468 0
DWIDTH 5 0
BBX 6 5 0 -1
BITMAP
453600
B29602
C0A161
C8B830
010000
ENDCHAR
STARTCHAR v
ENCODING 118
SWIDTH 427 0
DWIDTH 4 0
BBX 6 5 0 -1
BITMAP
823900
C09751
B19410
AA1000
110000
ENDCHAR
STARTCHAR w
ENCODING 119
SWIDTH 646 0
DWIDTH 6 0
BBX 8 5 0 -1
BITMAP
64674700
B1A28852
B090A510
B7886000
11020000
ENDCHAR
STARTCHAR x
ENCODING 120
SWIDTH 399 0
DWIDTH 4 0
BBX 6 5 -1 -1
BITMAP
084860
02D800
04E022
397A70
100200
ENDCHAR
STARTCHAR y
ENCODING 121
SWIDTH 406 0
DWIDTH 4 0
BBX 5 9 -1 -5
BITMAP
083470
0C1760
1B1D10
1DAC00
023900
006600
00A200
00D000
001000
ENDCHAR
STARTCHAR z
ENCODING 122
SWIDTH 448 0
DWIDTH 4 0
BBX 7 9 -1 -5
BITMAP
00AAB000
00055000
002B1510
0098B300
007B5000
083B1000
38490000
4AB10000
04100000
ENDCHAR
STARTCHAR braceleft
ENCODING 123
SWIDTH 243 0
DWIDTH 2 0
BBX 5 11 -1 -2
BITMAP
000210
005C10
00A000
00A000
029000
083000
055000
0A1000
290000
1D3000
010000
ENDCHAR
STARTCHAR bar
ENCODING 124
SWIDTH 253 0
DWIDTH 3 0
BBX 3 9 0 -1
BITMAP
0120
0750
0A10
0A00
3800
6500
A200
D000
1000
ENDCHAR
STARTCHAR braceright
ENCODING 125
SWIDTH 243 0
DWIDTH 2 0
BBX 4 11 -1 -2
BITMAP
0020
00C5
0047
0091
0090
00C0
0730
0A00
0B00
A800
2000
ENDCHAR
STARTCHAR asciitilde
ENCODING 126
SWIDTH 329 0
DWIDTH 3 0
BBX 5 1 -1 3
BITMAP
2BAA40
ENDCHAR
STARTCHAR uni00A0
ENCODING 160
SWIDTH 280 0
DWIDTH 3 0
BBX 1 1 0 0
BITMAP
00
ENDCHAR
STARTCHAR exclamdown
ENCODING 161
SWIDTH 249 0
DWIDTH 2 0
BBX 4 9 -1 -1
BITMAP
0013
0054
0071
00C0
03A0
0760
0B30
1E00
0200
ENDCHAR
STARTCHAR cent
ENCODING 162
SWIDTH 322 0
DWIDTH 3 0
BBX 4 8 0 0
BITMAP
0010
00A0
1974
92B2
A000
9010
9640
4400
ENDCHAR
STARTCHAR sterling
ENCODING 163
SWIDTH 318 0
DWIDTH 3 0
BBX 5 7 -1 0
BITMAP
004740
009570
046400
0BA100
0A0000
395300
354200
ENDCHAR
STARTCHAR currency
ENCODING 164
SWIDTH 347 0
DWIDTH 3 0
BBX 4 4 0 2
BITMAP
2002
3BA3
4480
97A0
ENDCHAR
STARTCHAR yen
ENCODING 165
SWIDTH 326 0
DWIDTH 3 0
BBX 4 7 0 0
BITMAP
2305
3636
1A90
1C20
7D40
6810
2100
ENDCHAR
STARTCHAR brokenbar
ENCODING 166
SWIDTH 253 0
DWIDTH 3 0
BBX 3 9 0 -1
BITMAP
0120
0750
0A10
0900
1100
6500
A200
D000
1000
ENDCHAR
STARTCHAR section
ENCODING 167
SWIDTH 297 0
DWIDTH 3 0
BBX 5 9 -1 -1
BITMAP
002410
029460
028210
039600
0B0A00
079300
148200
379200
021000
ENDCHAR
STARTCHAR dieresis
ENCODING 168
SWIDTH 567 0
DWIDTH 6 0
BBX 3 2 2 5
BITMAP
6350
2110
ENDCHAR
STARTCHAR copyright
ENCODING 169
SWIDTH 456 0
DWIDTH 5 0
BBX 5 6 0 2
BITMAP
003200
186650
748780
971190
847560
176500
ENDCHAR
STARTCHAR ordfeminine
ENCODING 170
SWIDTH 373 0
DWIDTH 4 0
BBX 5 6 -1 -1
BITMAP
018500
092A00
1A3820
1C6940
389700
221100
ENDCHAR
STARTCHAR guillemotleft
ENCODING 171
SWIDTH 346 0
DWIDTH 3 0
BBX 5 5 -1 -1
BITMAP
017620
1A7500
39B100
084600
000100
ENDCHAR
STARTCHAR logicalnot
ENCODING 172
SWIDTH 512 0
DWIDTH 5 0
BBX 5 3 0 1
BITMAP
AAAAB0
000190
000120
ENDCHAR
STARTCHAR sfthyphen
ENCODING 173
SWIDTH 353 0
DWIDTH 4 0
BBX 5 2 -1 2
BITMAP
067720
143310
ENDCHAR
STARTCHAR registered
ENCODING 174
SWIDTH 456 0
DWIDTH 5 0
BBX 5 6 0 2
BITMAP
003200
198750
737780
94C190
863860
176500
ENDCHAR
STARTCHAR macron
ENCODING 175
SWIDTH 567 0
DWIDTH 6 0
BBX 3 2 2 5
BITMAP
5840
2210
ENDCHAR
STARTCHAR degree
ENCODING 176
SWIDTH 144 0
DWIDTH 1 0
BBX 2 2 0 5
BITMAP
36
25
ENDCHAR
STARTCHAR twosuperior
ENCODING 178
SWIDTH 268 0
DWIDTH 3 0
BBX 3 6 0 2
BITMAP
0350
29A0
0290
1910
B940
2220
ENDCHAR
STARTCHAR threesuperior
ENCODING 179
SWIDTH 262 0
DWIDTH 3 0
BBX 3 6 0 2
BITMAP
0440
38A0
0680
0490
9660
1300
ENDCHAR
STARTCHAR acute
ENCODING 180
SWIDTH 567 0
DWIDTH 6 0
BBX 3 2 2 5
BITMAP
0720
3400
ENDCHAR
STARTCHAR mu
ENCODING 181
SWIDTH 453 0
DWIDTH 5 0
BBX 7 6 -2 -2
BITMAP
00516000
00C0D000
04829040
08C8A800
0B100000
19000000
ENDCHAR
STARTCHAR paragraph
ENCODING 182
SWIDTH 411 0
DWIDTH 4 0
BBX 5 9 0 -1
BITMAP
001220
1BEDA0
8FF820
8FC900
078900
056700
086400
0A8000
011000
ENDCHAR
STARTCHAR periodcentered
ENCODING 183
SWIDTH 168 0
DWIDTH 2 0
BBX 2 2 0 2
BITMAP
94
10
ENDCHAR
STARTCHAR cedilla
ENCODING 184
SWIDTH 567 0
DWIDTH 6 0
BBX 3 3 2 -2
BITMAP
2800
1A30
2300
ENDCHAR
STARTCHAR onesuperior
ENCODING 185
SWIDTH 150 0
DWIDTH 2 0
BBX 2 6 0 2
BITMAP
03
1B
18
54
91
20
ENDCHAR
STARTCHAR ordmasculine
ENCODING 186
SWIDTH 319 0
DWIDTH 3 0
BBX 5 6 -1 -1
BITMAP
038200
0C2A50
1A9900
0A9100
399200
221000
ENDCHAR
STARTCHAR guillemotright
ENCODING 187
SWIDTH 346 0
DWIDTH 3 0
BBX 4 5 -1 -1
BITMAP
0762
075A
076A
4691
1000
ENDCHAR
STARTCHAR onequarter
ENCODING 188
SWIDTH 579 0
DWIDTH 6 0
BBX 7 9 -1 -1
BITMAP
00300120
01B00A10
01807400
04437320
092A3C30
0294BA10
04816C10
1B101A00
11000100
ENDCHAR
STARTCHAR onehalf
ENCODING 189
SWIDTH 603 0
DWIDTH 6 0
BBX 6 9 0 -1
BITMAP
030012
0C00A1
090740
453854
83A65B
283055
380470
B11DA2
100111
ENDCHAR
STARTCHAR threequarters
ENCODING 190
SWIDTH 669 0
DWIDTH 7 0
BBX 7 9 0 -1
BITMAP
04400120
38A01A10
06809200
04946420
96794D10
1394AA00
05626C10
1B003800
11000100
ENDCHAR
STARTCHAR questiondown
ENCODING 191
SWIDTH 413 0
DWIDTH 4 0
BBX 6 9 -1 -1
BITMAP
000051
000181
000290
000760
02A810
1B1000
660550
4A5B30
024100
ENDCHAR
STARTCHAR Agrave
ENCODING 192
SWIDTH 552 0
DWIDTH 6 0
BBX 6 13 -1 -3
BITMAP
000066
000004
000023
00058B
001A0A
00841A
00C048
04B496
5D97D7
1E10C1
6C00E0
9400E3
000030
ENDCHAR
STARTCHAR Aacute
ENCODING 193
SWIDTH 552 0
DWIDTH 6 0
BBX 6 12 -1 -3
BITMAP
000019
000066
00058B
001A0A
00841A
00C048
04B496
5D97D7
1E10C1
6C00E0
9400E3
000030
ENDCHAR
STARTCHAR Acircumflex
ENCODING 194
SWIDTH 552 0
DWIDTH 6 0
BBX 7 12 -1 -3
BITMAP
00004A20
00005520
00058B00
001A0A00
00841A00
00C04800
04B49600
5D97D700
1E10C100
6C00E000
9400E300
00003000
ENDCHAR
STARTCHAR Atilde
ENCODING 195
SWIDTH 552 0
DWIDTH 6 0
BBX 7 12 -1 -3
BITMAP
00018760
00004520
00058B00
001A0A00
00841A00
00C04800
04B49600
5D97D700
1E10C100
6C00E000
9400E300
00003000
ENDCHAR
STARTCHAR Adieresis
ENCODING 196
SWIDTH 552 0
DWIDTH 6 0
BBX 7 12 -1 -3
BITMAP
00005360
00004420
00058B00
001A0A00
00841A00
00C04800
04B49600
5D97D700
1E10C100
6C00E000
9400E300
00003000
ENDCHAR
STARTCHAR Aring
ENCODING 197
SWIDTH 552 0
DWIDTH 6 0
BBX 6 12 -1 -3
BITMAP
000015
00005A
00058B
001A0A
00841A
00C048
04B496
5D97D7
1E10C1
6C00E0
9400E3
000030
ENDCHAR
STARTCHAR AE
ENCODING 198
SWIDTH 869 0
DWIDTH 9 0
BBX 10 11 -1 -3
BITMAP
0000230351
00058C973B
001A0D902B
00841F5073
00C04D9000
04B49BA900
5D97D80000
1E10C40050
6C00E80460
9400ECB600
0000300000
ENDCHAR
STARTCHAR Ccedilla
ENCODING 199
SWIDTH 548 0
DWIDTH 5 0
BBX 6 12 0 -4
BITMAP
000440
01A585
0A6077
3D00D4
980010
D40000
E20000
E10020
A60720
1BB300
078000
046000
ENDCHAR
STARTCHAR Egrave
ENCODING 200
SWIDTH 523 0
DWIDTH 5 0
BBX 7 11 -1 -2
BITMAP
00009300
00015800
004B4940
01E20940
03D02900
01D30000
029A5000
0C200000
4C001500
2E218100
05BA2000
ENDCHAR
STARTCHAR Eacute
ENCODING 201
SWIDTH 523 0
DWIDTH 5 0
BBX 7 11 -1 -2
BITMAP
00001900
00019500
004B4940
01E20940
03D02900
01D30000
029A5000
0C200000
4C001500
2E218100
05BA2000
ENDCHAR
STARTCHAR Ecircumflex
ENCODING 202
SWIDTH 523 0
DWIDTH 5 0
BBX 7 11 -1 -2
BITMAP
00005A10
00017520
004B4940
01E20940
03D02900
01D30000
029A5000
0C200000
4C001500
2E218100
05BA2000
ENDCHAR
STARTCHAR Edieresis
ENCODING 203
SWIDTH 523 0
DWIDTH 5 0
BBX 7 11 -1 -2
BITMAP
00007340
00016510
004B4940
01E20940
03D02900
01D30000
029A5000
0C200000
4C001500
2E218100
05BA2000
ENDCHAR
STARTCHAR Igrave
ENCODING 204
SWIDTH 537 0
DWIDTH 5 0
BBX 7 11 -1 -2
BITMAP
00007500
00002800
0004AB00
000C2C00
000D3A00
000B6700
0004B400
18A9D610
98058000
970A1000
19840000
ENDCHAR
STARTCHAR Iacute
ENCODING 205
SWIDTH 537 0
DWIDTH 5 0
BBX 7 11 -1 -2
BITMAP
00000720
00004700
0004AB00
000C2C00
000D3A00
000B6700
0004B400
18A9D610
98058000
970A1000
19840000
ENDCHAR
STARTCHAR Icircumflex
ENCODING 206
SWIDTH 537 0
DWIDTH 5 0
BBX 7 11 -1 -2
BITMAP
00002950
00004330
0004AB00
000C2C00
000D3A00
000B6700
0004B400
18A9D610
98058000
970A1000
19840000
ENDCHAR
STARTCHAR Idieresis
ENCODING 207
SWIDTH 537 0
DWIDTH 5 0
BBX 7 11 -1 -2
BITMAP
00005360
00003420
0004AB00
000C2C00
000D3A00
000B6700
0004B400
18A9D610
98058000
970A1000
19840000
ENDCHAR
STARTCHAR Eth
ENCODING 208
SWIDTH 632 0
DWIDTH 6 0
BBX 7 10 -1 -2
BITMAP
00044000
00B87B20
004705A0
008702E0
02B602E0
29E714B0
02B00960
06703C00
0B32C200
08A81000
ENDCHAR
STARTCHAR Ntilde
ENCODING 209
SWIDTH 541 0
DWIDTH 5 0
BBX 8 11 -1 -2
BITMAP
00058620
00121350
00B608A4
00E70C72
03A85D50
07584800
0A297500
0C0AA200
3B0AC000
5B0BB000
38055000
ENDCHAR
STARTCHAR Ograve
ENCODING 210
SWIDTH 567 0
DWIDTH 6 0
BBX 6 11 0 -2
BITMAP
000930
002660
02C7B0
0B30C1
3B00B2
8600B2
B300E0
D102B0
D00860
A22B00
3A9200
ENDCHAR
STARTCHAR Oacute
ENCODING 211
SWIDTH 567 0
DWIDTH 6 0
BBX 6 11 0 -2
BITMAP
000370
002B30
02C7B0
0B30C1
3B00B2
8600B2
B300E0
D102B0
D00860
A22B00
3A9200
ENDCHAR
STARTCHAR Ocircumflex
ENCODING 212
SWIDTH 567 0
DWIDTH 6 0
BBX 6 11 0 -2
BITMAP
000790
004750
02C7B0
0B30C1
3B00B2
8600B2
B300E0
D102B0
D00860
A22B00
3A9200
ENDCHAR
STARTCHAR Otilde
ENCODING 213
SWIDTH 567 0
DWIDTH 6 0
BBX 6 11 0 -2
BITMAP
005862
004650
02C7B0
0B30C1
3B00B2
8600B2
B300E0
D102B0
D00860
A22B00
3A9200
ENDCHAR
STARTCHAR Odieresis
ENCODING 214
SWIDTH 567 0
DWIDTH 6 0
BBX 6 11 0 -2
BITMAP
002561
003740
02C7B0
0B30C1
3B00B2
8600B2
B300E0
D102B0
D00860
A22B00
3A9200
ENDCHAR
STARTCHAR multiply
ENCODING 215
SWIDTH 281 0
DWIDTH 3 0
BBX 5 5 -1 1
BITMAP
010000
066A10
02D100
09A000
122100
ENDCHAR
STARTCHAR Oslash
ENCODING 216
SWIDTH 597 0
DWIDTH 6 0
BBX 7 10 -1 -2
BITMAP
00016360
001C7D50
00952F30
01D0AC40
06849A40
095B1C20
0B881D00
0BD16800
0981C100
1DA92000
ENDCHAR
STARTCHAR Ugrave
ENCODING 217
SWIDTH 574 0
DWIDTH 6 0
BBX 6 11 0 -2
BITMAP
000930
002043
07A03E
0C4079
1E00B4
5A00D0
8502B0
B20680
D00C60
D25D50
6B7450
ENDCHAR
STARTCHAR Uacute
ENCODING 218
SWIDTH 574 0
DWIDTH 6 0
BBX 6 11 0 -2
BITMAP
000072
002343
07A03E
0C4079
1E00B4
5A00D0
8502B0
B20680
D00C60
D25D50
6B7450
ENDCHAR
STARTCHAR Ucircumflex
ENCODING 219
SWIDTH 574 0
DWIDTH 6 0
BBX 6 11 0 -2
BITMAP
0005A1
002315
07A03E
0C4079
1E00B4
5A00D0
8502B0
B20680
D00C60
D25D50
6B7450
ENDCHAR
STARTCHAR Udieresis
ENCODING 220
SWIDTH 574 0
DWIDTH 6 0
BBX 6 11 0 -2
BITMAP
001643
002223
07A03E
0C4079
1E00B4
5A00D0
8502B0
B20680
D00C60
D25D50
6B7450
ENDCHAR
STARTCHAR Yacute
ENCODING 221
SWIDTH 532 0
DWIDTH 5 0
BBX 6 11 0 -2
BITMAP
000280
012523
0B5078
1E00B3
4A00D0
7604A0
A30B60
8A9A30
031B00
727600
8C7000
ENDCHAR
STARTCHAR Thorn
ENCODING 222
SWIDTH 569 0
DWIDTH 6 0
BBX 7 10 -1 -2
BITMAP
00020000
00770000
00B98400
08E11C30
05A00950
06600C20
0A308800
0D6A6000
2D100000
48000000
ENDCHAR
STARTCHAR germandbls
ENCODING 223
SWIDTH 495 0
DWIDTH 5 0
BBX 7 12 -2 -5
BITMAP
00017600
00094B00
001B2A00
00567300
00A12A00
05B01940
03B6D830
073A3200
0A092000
0B0B0000
2BA40000
1A400000
ENDCHAR
STARTCHAR agrave
ENCODING 224
SWIDTH 435 0
DWIDTH 4 0
BBX 7 7 -1 -1
BITMAP
00750000
00050000
019C1000
0A291110
1C0B0700
1E9A8100
01010000
ENDCHAR
STARTCHAR aacute
ENCODING 225
SWIDTH 435 0
DWIDTH 4 0
BBX 7 7 -1 -1
BITMAP
00081000
00340000
019C1000
0A291110
1C0B0700
1E9A8100
01010000
ENDCHAR
STARTCHAR acircumflex
ENCODING 226
SWIDTH 435 0
DWIDTH 4 0
BBX 7 7 -1 -1
BITMAP
004A2000
00322000
019C1000
0A291110
1C0B0700
1E9A8100
01010000
ENDCHAR
STARTCHAR atilde
ENCODING 227
SWIDTH 435 0
DWIDTH 4 0
BBX 7 7 -1 -1
BITMAP
01865000
00132000
019C1000
0A291110
1C0B0700
1E9A8100
01010000
ENDCHAR
STARTCHAR adieresis
ENCODING 228
SWIDTH 435 0
DWIDTH 4 0
BBX 7 7 -1 -1
BITMAP
00536000
00212000
019C1000
0A291110
1C0B0700
1E9A8100
01010000
ENDCHAR
STARTCHAR aring
ENCODING 229
SWIDTH 435 0
DWIDTH 4 0
BBX 7 7 -1 -1
BITMAP
00360000
00250000
019C1000
0A291110
1C0B0700
1E9A8100
01010000
ENDCHAR
STARTCHAR ae
ENCODING 230
SWIDTH 594 0
DWIDTH 6 0
BBX 8 6 -1 -1
BITMAP
00010000
019C8C00
0A2B7802
1C0D6053
1E9A8840
01003000
ENDCHAR
STARTCHAR ccedilla
ENCODING 231
SWIDTH 363 0
DWIDTH 4 0
BBX 6 8 -1 -3
BITMAP
001000
03AA00
0B2502
1B0071
0C6820
049000
01B200
021000
ENDCHAR
STARTCHAR egrave
ENCODING 232
SWIDTH 372 0
DWIDTH 4 0
BBX 5 7 0 -1
BITMAP
084000
005000
29B000
A66020
E40610
B78200
130000
ENDCHAR
STARTCHAR eacute
ENCODING 233
SWIDTH 372 0
DWIDTH 4 0
BBX 5 7 0 -1
BITMAP
019100
043000
29B000
A66020
E40610
B78200
130000
ENDCHAR
STARTCHAR ecircumflex
ENCODING 234
SWIDTH 372 0
DWIDTH 4 0
BBX 5 7 0 -1
BITMAP
05A100
032200
29B000
A66020
E40610
B78200
130000
ENDCHAR
STARTCHAR edieresis
ENCODING 235
SWIDTH 372 0
DWIDTH 4 0
BBX 5 7 0 -1
BITMAP
073400
022100
29B000
A66020
E40610
B78200
130000
ENDCHAR
STARTCHAR igrave
ENCODING 236
SWIDTH 274 0
DWIDTH 3 0
BBX 4 6 0 0
BITMAP
8400
0400
4700
9402
A072
9930
ENDCHAR
STARTCHAR iacute
ENCODING 237
SWIDTH 274 0
DWIDTH 3 0
BBX 4 6 0 0
BITMAP
0280
0510
4700
9402
A072
9930
ENDCHAR
STARTCHAR icircumflex
ENCODING 238
SWIDTH 274 0
DWIDTH 3 0
BBX 4 6 0 0
BITMAP
2A40
3030
4700
9402
A072
9930
ENDCHAR
STARTCHAR idieresis
ENCODING 239
SWIDTH 274 0
DWIDTH 3 0
BBX 4 6 0 0
BITMAP
5360
2120
4700
9402
A072
9930
ENDCHAR
STARTCHAR eth
ENCODING 240
SWIDTH 393 0
DWIDTH 4 0
BBX 5 8 0 -1
BITMAP
003000
02A910
069200
4AC210
C4A650
A8D300
B95000
120000
ENDCHAR
STARTCHAR ntilde
ENCODING 241
SWIDTH 461 0
DWIDTH 5 0
BBX 7 7 -1 -1
BITMAP
01876000
00122000
048B4000
08866020
0B0A2710
1B0C8300
01021000
ENDCHAR
STARTCHAR ograve
ENCODING 242
SWIDTH 393 0
DWIDTH 4 0
BBX 5 7 0 -1
BITMAP
084000
004000
4A7010
C4A550
A8D200
B95000
120000
ENDCHAR
STARTCHAR oacute
ENCODING 243
SWIDTH 393 0
DWIDTH 4 0
BBX 5 7 0 -1
BITMAP
019100
043000
4A7010
C4A550
A8D200
B95000
120000
ENDCHAR
STARTCHAR ocircumflex
ENCODING 244
SWIDTH 393 0
DWIDTH 4 0
BBX 5 7 0 -1
BITMAP
079000
113000
4A7010
C4A550
A8D200
B95000
120000
ENDCHAR
STARTCHAR otilde
ENCODING 245
SWIDTH 393 0
DWIDTH 4 0
BBX 5 7 0 -1
BITMAP
386400
103100
4A7010
C4A550
A8D200
B95000
120000
ENDCHAR
STARTCHAR odieresis
ENCODING 246
SWIDTH 393 0
DWIDTH 4 0
BBX 5 7 0 -1
BITMAP
164300
022000
4A7010
C4A550
A8D200
B95000
120000
ENDCHAR
STARTCHAR divide
ENCODING 247
SWIDTH 350 0
DWIDTH 4 0
BBX 4 4 0 2
BITMAP
0010
0440
AAA4
0800
ENDCHAR
STARTCHAR oslash
ENCODING 248
SWIDTH 406 0
DWIDTH 4 0
BBX 6 6 -1 -1
BITMAP
000130
02BC21
0B6966
0A7D30
0C8700
362000
ENDCHAR
STARTCHAR ugrave
ENCODING 249
SWIDTH 468 0
DWIDTH 5 0
BBX 6 7 0 -1
BITMAP
075000
005000
453600
B29602
C0A161
C8B830
010000
ENDCHAR
STARTCHAR uacute
ENCODING 250
SWIDTH 468 0
DWIDTH 5 0
BBX 6 7 0 -1
BITMAP
007300
034000
453600
B29602
C0A161
C8B830
010000
ENDCHAR
STARTCHAR ucircumflex
ENCODING 251
SWIDTH 468 0
DWIDTH 5 0
BBX 6 7 0 -1
BITMAP
03A300
031300
453600
B29602
C0A161
C8B830
010000
ENDCHAR
STARTCHAR udieresis
ENCODING 252
SWIDTH 468 0
DWIDTH 5 0
BBX 6 7 0 -1
BITMAP
053600
021200
453600
B29602
C0A161
C8B830
010000
ENDCHAR
STARTCHAR yacute
ENCODING 253
SWIDTH 406 0
DWIDTH 4 0
BBX 5 11 -1 -5
BITMAP
000550
001500
083470
0C1760
1B1D10
1DAC00
023900
006600
00A200
00D000
001000
ENDCHAR
STARTCHAR thorn
ENCODING 254
SWIDTH 451 0
DWIDTH 5 0
BBX 7 12 -1 -5
BITMAP
00840000
00C20000
00C00000
04AA5000
07937110
0A193700
0EED8100
38320000
75000000
B2000000
D0000000
20000000
ENDCHAR
STARTCHAR ydieresis
ENCODING 255
SWIDTH 406 0
DWIDTH 4 0
BBX 5 11 -1 -5
BITMAP
007340
002110
083470
0C1760
1B1D10
1DAC00
023900
006600
00A200
00D000
001000
ENDCHAR
STARTCHAR dotlessi
ENCODING 305
SWIDTH 274 0
DWIDTH 3 0
BBX 4 4 0 0
BITMAP
4700
9402
A072
9930
ENDCHAR
STARTCHAR Lslash
ENCODING 321
SWIDTH 492 0
DWIDTH 5 0
BBX 7 10 -1 -2
BITMAP
00001400
0000BC40
0004AB10
0109E500
059E3000
003E7000
04B91000
00A20000
ADD20200
764BD400
ENDCHAR
STARTCHAR lslash
ENCODING 322
SWIDTH 218 0
DWIDTH 2 0
BBX 4 8 -1 -1
BITMAP
0093
00D1
02C2
6CB5
1940
0C00
1B00
0100
ENDCHAR
STARTCHAR OE
ENCODING 338
SWIDTH 918 0
DWIDTH 9 0
BBX 10 10 0 -2
BITMAP
0026201430
02C7C4B393
0B30CE10A3
3B00BD0280
8600BD2000
B300EAA400
D102E10000
D008B00140
A22CE21810
3A915B9200
ENDCHAR
STARTCHAR oe
ENCODING 339
SWIDTH 583 0
DWIDTH 6 0
BBX 7 6 0 -1
BITMAP
00001000
4A88C100
C6A79020
A8F70430
B9C87400
11030000
ENDCHAR
STARTCHAR Scaron
ENCODING 352
SWIDTH 474 0
DWIDTH 5 0
BBX 7 11 -1 -2
BITMAP
00008630
00048400
00983C00
02B01D00
03C03500
00B80000
001D4000
00068000
37047000
6A082000
1BA50000
ENDCHAR
STARTCHAR scaron
ENCODING 353
SWIDTH 351 0
DWIDTH 4 0
BBX 4 8 0 -1
BITMAP
0872
0220
0310
1F10
6A30
33A0
9770
1300
ENDCHAR
STARTCHAR Ydieresis
ENCODING 376
SWIDTH 532 0
DWIDTH 5 0
BBX 6 11 0 -2
BITMAP
002561
013133
0B5078
1E00B3
4A00D0
7604A0
A30B60
8A9A30
031B00
727600
8C7000
ENDCHAR
STARTCHAR Zcaron
ENCODING 381
SWIDTH 455 0
DWIDTH 5 0
BBX 7 11 -1 -2
BITMAP
00028710
00248300
02C98E00
00005A00
0002D100
000B4000
00970000
06900000
2C000000
97664000
89894000
ENDCHAR
STARTCHAR zcaron
ENCODING 382
SWIDTH 349 0
DWIDTH 4 0
BBX 7 11 -2 -5
BITMAP
00086300
00023000
00AAB000
00056000
002B1510
0087B300
007A5000
083B1000
28490000
4AB10000
04100000
ENDCHAR
STARTCHAR circumflex
ENCODING 710
SWIDTH 567 0
DWIDTH 6 0
BBX 3 2 2 5
BITMAP
2A40
3030
ENDCHAR
STARTCHAR caron
ENCODING 711
SWIDTH 567 0
DWIDTH 6 0
BBX 3 2 2 5
BITMAP
8640
2300
ENDCHAR
STARTCHAR breve
ENCODING 728
SWIDTH 567 0
DWIDTH 6 0
BBX 3 2 2 5
BITMAP
7160
5810
ENDCHAR
STARTCHAR dotaccent
ENCODING 729
SWIDTH 567 0
DWIDTH 6 0
BBX 1 2 3 5
BITMAP
70
20
ENDCHAR
STARTCHAR ring
ENCODING 730
SWIDTH 567 0
DWIDTH 6 0
BBX 3 2 2 5
BITMAP
1710
1600
ENDCHAR
STARTCHAR ogonek
ENCODING 731
SWIDTH 567 0
DWIDTH 6 0
BBX 3 3 2 -2
BITMAP
3100
B730
1100
ENDCHAR
STARTCHAR tilde
ENCODING 732
SWIDTH 567 0
DWIDTH 6 0
BBX 3 2 2 5
BITMAP
7760
2220
ENDCHAR
STARTCHAR hungarumlaut
ENCODING 733
SWIDTH 567 0
DWIDTH 6 0
BBX 4 2 1 5
BITMAP
0569
1542
ENDCHAR
STARTCHAR endash
ENCODING 8211
SWIDTH 353 0
DWIDTH 4 0
BBX 5 2 -1 2
BITMAP
067720
143310
ENDCHAR
STARTCHAR emdash
ENCODING 8212
SWIDTH 508 0
DWIDTH 5 0
BBX 5 2 0 2
BITMAP
788860
443340
ENDCHAR
STARTCHAR quoteleft
ENCODING 8216
SWIDTH 155 0
DWIDTH 2 0
BBX 2 3 0 4
BITMAP
14
77
22
ENDCHAR
STARTCHAR quoteright
ENCODING 8217
SWIDTH 154 0
DWIDTH 2 0
BBX 2 3 0 4
BITMAP
38
29
21
ENDCHAR
STARTCHAR quotesinglbase
ENCODING 8218
SWIDTH 188 0
DWIDTH 2 0
BBX 2 3 -1 -2
BITMAP
4B
17
10
ENDCHAR
STARTCHAR quotedblleft
ENCODING 8220
SWIDTH 289 0
DWIDTH 3 0
BBX 3 3 0 4
BITMAP
1450
79C0
2240
ENDCHAR
STARTCHAR quotedblright
ENCODING 8221
SWIDTH 288 0
DWIDTH 3 0
BBX 4 3 0 4
BITMAP
39A1
28A0
2120
ENDCHAR
STARTCHAR quotedblbase
ENCODING 8222
SWIDTH 323 0
DWIDTH 3 0
BBX 4 3 -1 -2
BITMAP
4BD2
1780
1010
ENDCHAR
STARTCHAR bullet
ENCODING 8226
SWIDTH 180 0
DWIDTH 2 0
BBX 3 3 -1 1
BITMAP
0B60
1F60
0300
ENDCHAR
STARTCHAR ellipsis
ENCODING 8230
SWIDTH 614 0
DWIDTH 6 0
BBX 6 2 -1 -1
BITMAP
2A2A2A
121212
ENDCHAR
STARTCHAR perthousand
ENCODING 8240
SWIDTH 851 0
DWIDTH 9 0
BBX 9 9 0 -1
BITMAP
0110030000
39A0840000
81A3800000
778A000000
0283302300
047A859910
1A366A3900
A32AA59800
1001001000
ENDCHAR
STARTCHAR guilsinglleft
ENCODING 8249
SWIDTH 202 0
DWIDTH 2 0
BBX 3 5 -1 -1
BITMAP
0170
1A10
3900
0810
0100
ENDCHAR
STARTCHAR guilsinglright
ENCODING 8250
SWIDTH 202 0
DWIDTH 2 0
BBX 3 5 -1 -1
BITMAP
0700
0740
0750
4600
1000
ENDCHAR
STARTCHAR fraction
ENCODING 8260
SWIDTH 600 0
DWIDTH 6 0
BBX 6 9 0 -1
BITMAP
000003
000048
0001A0
000920
005600
01A000
0A2000
570000
100000
ENDCHAR
STARTCHAR Euro
ENCODING 8364
SWIDTH 334 0
DWIDTH 3 0
BBX 5 7 -1 0
BITMAP
001630
00A250
06A300
2DA600
2B2100
073700
004100
ENDCHAR
STARTCHAR minus
ENCODING 8722
SWIDTH 353 0
DWIDTH 4 0
BBX 5 2 -1 2
BITMAP
067720
143310
ENDCHAR
STARTCHAR fi
ENCODING 64257
SWIDTH 549 0
DWIDTH 6 0
BBX 8 12 -1 -5
BITMAP
00860300
00940800
00B10000
01A07400
06B6D111
0E10B080
0C90B910
37741000
74560000
A1A20000
C7800000
87000000
ENDCHAR
STARTCHAR fl
ENCODING 64258
SWIDTH 516 0
DWIDTH 5 0
BBX 7 12 -1 -5
BITMAP
00860A20
00940D00
00B12B00
01A06700
06B6C300
0E10C000
0C91B000
37741000
74560000
A1A20000
C7800000
87000000
ENDCHAR
STARTCHAR .notdef
ENCODING -1
SWIDTH 280 0
DWIDTH 3 0
BBX 1 1 0 0
BITMAP
00
ENDCHAR
ENDFONT
